<svg width="40" height="40" viewBox="0 0 40 40" fill="none" xmlns="http://www.w3.org/2000/svg">
<path d="M22.314 27.938C22.314 28.3463 22.1929 28.7454 21.966 29.0849C21.7391 29.4244 21.4167 29.6889 21.0394 29.8451C20.6621 30.0012 20.247 30.042 19.8466 29.9622C19.4462 29.8824 19.0784 29.6856 18.7898 29.3968C18.5012 29.1079 18.3048 28.7399 18.2254 28.3394C18.146 27.9389 18.1872 27.5239 18.3437 27.1468C18.5002 26.7696 18.7651 26.4474 19.1048 26.2209C19.4444 25.9943 19.8437 25.8736 20.252 25.874C20.7991 25.8745 21.3235 26.0922 21.7102 26.4792C22.0968 26.8663 22.314 27.3909 22.314 27.938V27.938ZM24.314 11.938C24.7438 12.4468 25.0635 13.0391 25.2528 13.6777C25.4422 14.3163 25.497 14.9872 25.414 15.648C24.9819 17.2737 24.0197 18.7088 22.68 19.726C22.1228 20.0803 21.6612 20.5659 21.3355 21.1402C21.0098 21.7145 20.83 22.36 20.812 23.02H18.812C18.8254 22.0801 19.0615 21.1568 19.501 20.3259C19.9404 19.495 20.5707 18.7801 21.34 18.24C22.3711 17.4863 23.1213 16.4101 23.472 15.182C23.4841 14.4498 23.2281 13.7384 22.752 13.182C22.4595 12.8012 22.0806 12.4954 21.6466 12.2899C21.2126 12.0843 20.736 11.985 20.256 12C19.7945 11.9424 19.326 11.9819 18.8807 12.1161C18.4354 12.2503 18.0231 12.4762 17.6703 12.7793C17.3175 13.0824 17.032 13.4559 16.8321 13.8759C16.6323 14.2959 16.5226 14.7531 16.51 15.218L14.51 15.164C14.5311 14.442 14.6986 13.7318 15.0023 13.0764C15.3061 12.421 15.7397 11.8341 16.2769 11.3513C16.8142 10.8685 17.4439 10.4997 18.1278 10.2675C18.8118 10.0352 19.5358 9.94419 20.256 10C21.0365 9.9877 21.8093 10.1554 22.5144 10.4901C23.2196 10.8248 23.8381 11.3175 24.322 11.93L24.314 11.938Z" fill="white"/>
</svg>
